<svg id="Layer_1" data-name="Layer 1" xmlns="http://www.w3.org/2000/svg" viewBox="0 0 192.3 253.28"><defs><style>.cls-1{fill:#010202;}.cls-2{fill:#e92130;}</style></defs><title>logo</title><path class="cls-1" d="M689.55,346.83c-14.79,14.45-29.21,28.49-43.56,42.59-5,4.94-4.95,5-9.74.16q-44.15-44.52-88.35-89a8.81,8.81,0,0,1-2.95-6.9c0.14-18.16.05-36.31,0.11-54.47,0-1.65-.93-3.83,1.62-4.64,2.13-.67,2.93,1.21,4,2.29q42.29,42.49,84.51,85c4.62,4.65,4.62,4.62,9.34-.14q21.29-21.46,42.57-42.93a7.13,7.13,0,0,1,5.59-2.5c13.16,0.12,26.32.19,39.48,0,3.78,0,4.85,1.36,4.85,5q-0.11,100.95-.07,201.89c0,1.54.7,3.44-1.49,4.27s-3-1.09-4.05-2.15c-13.18-13.2-26.26-26.5-39.48-39.65-2-2-2.43-4.05-2.42-6.67q0.1-43,0-86C689.55,351,689.55,348.91,689.55,346.83Z" transform="translate(-544.76 -234.45)"/><path class="cls-2" d="M545,426.41c0-18.65,0-37.29,0-55.94,0-1.52-.82-3.42,1.23-4.45,2.41-1.21,3.26,1,4.43,2.15q28.06,28.13,56.09,56.28c1.68,1.68,1.88,2.58.16,4.28q-18.37,18.16-36.6,36.48c-6.23,6.26-12.3,12.67-18.54,18.92-1.42,1.42-2.41,4-5.07,3.26-3.07-.89-1.66-3.65-1.67-5.54C545,463.37,545,444.89,545,426.41Z" transform="translate(-544.76 -234.45)"/></svg>